<svg t="1679648555051" class="icon" viewBox="0 0 1024 1024" version="1.1" xmlns="http://www.w3.org/2000/svg" p-id="2541" width="200" height="200"><path d="M882.63125001 697.2875h-52.87500002V432.575c0-157.6125-114.975-288.16875001-265.66874999-312.975 0.16875001-1.575 0.84375001-3.0375 0.84375001-4.66875001C564.93125001 85.68124999 541.30625001 62 512 62c-29.25 0-52.93125001 23.68125001-52.93125001 52.93125001 0 1.63125001 0.7875 3.0375 0.95625001 4.66874999C309.3875 144.40624999 194.4125 274.90624999 194.4125 432.575v264.7125H141.425c-29.25 0-52.93125001 23.68125001-52.93125001 52.93124999s23.68125001 52.875 52.93125001 52.875h741.15c29.25 0 52.875-23.68125001 52.875-52.875 0.05625001-29.25-23.625-52.93125001-52.81875001-52.93124999zM512 962c58.5 0 105.91875001-47.41875001 105.91875001-105.8625h-211.78125001C406.1375 914.58125001 453.55624999 962 512 962z" p-id="2542" fill="#bfbfbf"></path></svg>